<?xml version="1.0" standalone="no"?>
<!DOCTYPE svg PUBLIC "-//W3C//DTD SVG 20010904//EN"
 "http://www.w3.org/TR/2001/REC-SVG-20010904/DTD/svg10.dtd">
<svg version="1.0" xmlns="http://www.w3.org/2000/svg"
 width="512.000000pt" height="512.000000pt" viewBox="0 0 512.000000 512.000000"
 preserveAspectRatio="xMidYMid meet">
<metadata>
Created by potrace 1.11, written by Peter Selinger 2001-2013
</metadata>
<g transform="translate(0.000000,512.000000) scale(0.100000,-0.100000)"
fill="#000000" stroke="none">
<path d="M1105 5096 c-129 -30 -271 -113 -396 -233 -447 -429 -595 -1205 -434
-2273 47 -309 75 -396 135 -428 32 -17 63 -14 350 34 154 25 543 30 720 9 311
-37 320 -36 369 67 67 144 202 602 242 823 53 298 27 774 -60 1115 -125 489
-358 797 -661 875 -89 23 -193 27 -265 11z"/>
<path d="M3780 5095 c-30 -8 -97 -36 -148 -61 -207 -104 -378 -338 -486 -666
-118 -357 -166 -857 -116 -1205 30 -207 105 -489 215 -803 65 -183 96 -200
310 -164 210 34 629 29 887 -11 245 -39 254 -40 283 -21 55 36 82 119 125 386
84 528 91 1014 19 1405 -51 280 -161 550 -302 745 -22 30 -86 100 -142 155
-168 165 -323 243 -499 251 -61 3 -109 -1 -146 -11z"/>
<path d="M1675 1545 c-49 -7 -247 -34 -440 -59 -192 -26 -430 -58 -528 -71
-98 -14 -182 -25 -188 -25 -24 0 4 -464 40 -662 24 -129 86 -307 140 -397 90
-152 222 -258 380 -305 69 -20 235 -21 329 -1 269 56 425 191 515 446 21 61
22 79 21 334 0 286 -6 338 -60 590 -36 166 -36 165 -81 164 -21 -1 -78 -7
-128 -14z"/>
<path d="M3252 1418 c-64 -293 -66 -312 -67 -608 0 -275 0 -275 27 -353 40
-112 84 -183 159 -258 118 -119 272 -177 494 -186 122 -5 135 -4 208 21 261
88 432 329 502 709 20 109 45 409 45 543 l0 102 -32 6 c-18 3 -197 26 -398 51
-201 26 -457 59 -570 75 -113 16 -234 32 -270 35 l-66 7 -32 -144z"/>
</g>
</svg>
