<?xml version="1.0" standalone="no"?>
<!DOCTYPE svg PUBLIC "-//W3C//DTD SVG 20010904//EN"
 "http://www.w3.org/TR/2001/REC-SVG-20010904/DTD/svg10.dtd">
<svg version="1.0" xmlns="http://www.w3.org/2000/svg"
 width="512.000000pt" height="512.000000pt" viewBox="0 0 512.000000 512.000000"
 preserveAspectRatio="xMidYMid meet">
<metadata>
Created by potrace 1.11, written by Peter Selinger 2001-2013
</metadata>
<g transform="translate(0.000000,512.000000) scale(0.100000,-0.100000)"
fill="#000000" stroke="none">
<path d="M1270 5080 c-19 -5 -51 -11 -71 -14 -22 -4 -50 -20 -77 -46 -23 -22
-45 -40 -50 -40 -4 0 -22 -15 -38 -32 -16 -18 -49 -49 -73 -68 -24 -19 -38
-36 -32 -38 7 -2 17 1 24 6 15 13 178 25 193 15 21 -15 34 -53 28 -79 -15 -57
-114 -124 -186 -124 -10 0 -28 -9 -40 -20 -12 -11 -38 -23 -57 -26 -20 -4 -43
-10 -51 -15 -24 -13 45 -11 74 2 17 8 30 9 38 2 7 -6 25 -13 39 -17 31 -7 44
-51 31 -100 -10 -38 -74 -73 -151 -82 -33 -3 -76 -16 -96 -29 l-37 -22 92 1
c105 0 113 -5 107 -72 -5 -47 -33 -82 -65 -82 -10 0 -27 -7 -38 -15 -10 -8
-27 -15 -37 -15 -10 0 -28 -6 -40 -14 -12 -8 -43 -17 -69 -21 -42 -5 -48 -9
-48 -31 0 -29 29 -32 90 -8 48 19 78 13 113 -22 27 -27 39 -94 17 -94 -5 0
-10 -6 -10 -14 0 -22 -63 -56 -105 -56 -43 0 -105 -27 -105 -45 0 -7 -6 -16
-12 -18 -38 -16 45 -4 86 12 38 14 57 16 78 9 15 -6 28 -14 28 -19 0 -5 9 -9
20 -9 15 0 20 -7 20 -27 0 -65 -51 -106 -162 -132 -63 -15 -89 -44 -69 -77 9
-16 10 -16 11 -3 0 34 123 69 172 50 30 -11 58 -57 58 -95 0 -29 -37 -62 -80
-71 -17 -4 -30 -10 -30 -15 0 -4 -27 -16 -60 -26 -43 -14 -60 -24 -60 -36 0
-19 15 -24 25 -9 8 14 112 34 170 32 39 -1 53 -6 67 -23 31 -41 31 -66 1 -92
-27 -23 -124 -58 -195 -71 -33 -5 -38 -9 -38 -33 0 -31 28 -91 65 -141 14 -20
25 -48 25 -66 0 -18 6 -48 14 -66 7 -19 16 -79 20 -133 3 -54 8 -101 10 -103
4 -4 115 8 471 52 61 8 161 14 223 15 l112 0 -2 246 -3 246 -43 17 c-24 10
-47 22 -50 28 -4 6 -24 14 -45 18 -30 6 -42 15 -54 40 -16 33 -15 42 9 80 24
36 37 45 67 45 40 0 71 -13 103 -43 25 -24 47 -32 73 -28 6 1 -5 8 -22 16 -21
9 -33 21 -33 33 0 13 -12 22 -39 30 -48 15 -62 31 -67 79 -7 53 13 86 60 98
32 7 40 6 47 -8 6 -9 19 -17 29 -17 11 0 20 -4 20 -8 0 -5 22 -21 49 -35 42
-23 50 -25 55 -11 7 19 -10 54 -27 54 -7 0 -38 12 -69 27 -46 22 -58 33 -58
51 0 13 -5 32 -11 43 -7 14 -7 30 1 55 12 34 14 36 49 30 122 -19 122 -19 115
-1 -4 9 -32 29 -63 44 -67 32 -89 67 -71 111 19 46 48 70 83 70 40 0 110 -24
115 -39 4 -12 81 -55 88 -49 2 3 5 15 6 27 3 20 -7 28 -74 56 -42 18 -84 40
-93 49 -9 9 -24 16 -34 16 -10 0 -28 8 -39 19 -18 15 -22 29 -22 75 0 53 2 58
33 76 44 27 71 25 131 -9 28 -15 67 -31 86 -35 l35 -7 -24 21 c-13 11 -31 20
-42 20 -10 0 -30 11 -45 25 -18 17 -38 25 -64 25 -35 0 -125 46 -142 74 -16
24 -7 63 23 99 25 30 37 37 65 37 20 0 42 -7 50 -15 9 -8 24 -15 33 -15 10 0
24 -7 31 -16 15 -17 80 -47 88 -39 9 8 -18 33 -51 46 -18 7 -36 19 -40 26 -4
7 -16 13 -26 13 -9 0 -26 7 -37 15 -10 8 -29 15 -41 15 -28 0 -113 51 -113 67
0 7 -5 13 -10 13 -6 0 -24 15 -40 33 -39 43 -40 87 -2 122 40 37 56 39 109 11
26 -15 53 -26 60 -26 6 0 18 -8 25 -18 7 -11 23 -24 36 -31 23 -12 23 -12 -5
44 -22 43 -34 57 -56 62 -18 3 -38 21 -57 47 -15 23 -35 48 -44 55 -9 8 -16
22 -16 32 0 12 -10 21 -27 25 -16 4 -39 14 -53 23 -14 8 -61 21 -105 28 -91
14 -107 14 -155 3z m194 -59 c47 -23 56 -40 56 -108 0 -38 -3 -43 -27 -49 -16
-3 -39 -11 -52 -17 -33 -16 -129 -12 -166 7 -16 9 -35 16 -42 16 -35 0 -26 95
13 131 54 51 138 58 218 20z m-71 -227 c18 -9 36 -23 40 -30 4 -8 13 -14 20
-14 21 -1 52 -34 66 -70 8 -19 24 -49 37 -66 13 -17 26 -43 30 -58 3 -14 10
-29 15 -32 5 -3 9 -140 9 -304 0 -264 -2 -304 -17 -337 -10 -21 -22 -40 -26
-42 -5 -2 -24 -35 -42 -75 -19 -39 -44 -89 -56 -111 -32 -58 -39 -73 -39 -88
0 -8 -11 -31 -25 -51 -13 -20 -34 -71 -45 -114 -11 -42 -32 -115 -46 -162 -23
-74 -27 -108 -31 -257 l-6 -173 -83 0 -84 0 0 63 c0 72 -26 205 -44 227 -16
20 -46 87 -46 103 0 7 -12 30 -26 51 -35 51 -43 80 -60 216 -33 259 -36 299
-30 392 10 179 65 488 86 488 13 0 130 246 130 273 0 15 8 37 18 49 29 36 76
78 88 78 6 0 19 10 30 21 37 41 86 49 137 23z"/>
<path d="M1325 4983 c-33 -8 -45 -24 -45 -58 0 -47 18 -56 97 -53 l68 3 3 42
c2 33 -1 44 -20 57 -22 16 -62 19 -103 9z"/>
<path d="M1284 4728 c-16 -13 -40 -36 -54 -52 -14 -16 -35 -39 -46 -51 -48
-52 -61 -81 -66 -145 -3 -36 -4 -58 -2 -50 3 9 19 22 37 29 77 33 118 54 123
62 10 18 80 10 99 -11 10 -11 26 -20 35 -20 10 0 20 -7 23 -15 4 -8 23 -21 44
-30 20 -9 40 -19 43 -23 3 -4 14 -12 25 -18 22 -12 33 -54 15 -54 -7 0 -21
-11 -32 -25 -25 -32 -67 -33 -97 -1 -19 21 -57 32 -116 36 -20 2 -144 -18
-154 -24 -21 -13 -51 14 -51 44 0 39 -17 39 -25 0 -4 -16 -12 -30 -19 -30 -13
0 -31 -45 -42 -105 -4 -22 -20 -77 -35 -122 -29 -81 -29 -82 -29 -331 0 -137
4 -262 9 -278 5 -16 22 -69 37 -119 26 -86 44 -124 71 -153 7 -7 13 -21 13
-31 0 -9 4 -21 10 -27 5 -5 12 -47 15 -94 10 -159 27 -250 44 -249 50 2 55 11
58 115 4 133 54 420 84 473 15 28 46 105 64 156 9 28 27 64 41 82 13 17 24 39
24 49 0 20 58 115 77 127 7 4 13 17 13 27 0 11 11 48 24 82 33 90 38 125 37
285 0 106 -4 150 -15 172 -9 16 -24 60 -35 99 -12 45 -34 90 -60 126 -23 30
-41 59 -41 65 0 14 -68 51 -94 51 -13 0 -36 -10 -52 -22z m74 -448 c13 -11 30
-20 37 -20 6 0 29 -13 51 -30 21 -16 44 -30 51 -30 15 0 27 -61 19 -93 -8 -34
-65 -52 -114 -36 -20 6 -46 20 -57 30 -29 26 -73 40 -103 32 -15 -3 -29 -9
-32 -12 -3 -4 -25 -15 -49 -26 l-44 -19 -23 29 c-24 30 -33 95 -14 95 6 0 10
5 10 11 0 17 49 59 68 59 10 0 26 6 37 14 44 31 121 29 163 -4z m-80 -224 c15
-8 44 -28 66 -45 21 -17 48 -31 59 -31 19 0 30 -10 62 -56 12 -16 13 -27 4
-52 -11 -32 -11 -32 -83 -32 -69 0 -74 2 -112 35 -21 19 -42 35 -46 35 -12 0
-103 -52 -106 -62 -2 -4 -16 -8 -32 -8 -33 0 -70 40 -70 74 0 50 11 64 52 70
27 4 42 13 45 25 4 18 33 37 78 52 32 11 54 10 83 -5z m-25 -261 c28 -19 59
-35 68 -35 43 0 60 -87 24 -115 -30 -22 -60 -18 -116 16 -37 24 -53 29 -62 20
-6 -6 -19 -11 -28 -11 -10 0 -19 -5 -21 -12 -6 -18 -56 -1 -73 26 -13 19 -13
28 -4 50 7 14 19 26 27 26 8 0 32 16 53 35 22 19 48 35 59 35 12 0 44 -16 73
-35z"/>
<path d="M1246 4249 c-16 -5 -32 -12 -35 -17 -3 -5 -24 -15 -46 -24 -27 -10
-41 -23 -43 -37 -2 -11 -2 -21 0 -21 6 0 73 27 110 43 42 19 70 13 123 -27 46
-34 83 -47 91 -34 4 6 -1 18 -12 25 -10 7 -41 29 -67 49 -62 45 -85 53 -121
43z"/>
<path d="M1205 3989 c-16 -5 -42 -11 -57 -14 -16 -3 -28 -10 -28 -17 0 -6 -8
-17 -17 -24 -10 -7 -14 -16 -10 -20 7 -7 26 0 110 42 27 13 31 12 72 -16 24
-17 51 -30 61 -30 10 0 25 -7 34 -15 10 -9 25 -13 34 -9 20 8 21 24 1 24 -8 0
-36 15 -62 34 -60 42 -100 55 -138 45z"/>
<path d="M1136 3745 c-11 -8 -16 -15 -10 -15 5 0 18 7 28 15 11 8 16 15 10 15
-5 0 -18 -7 -28 -15z"/>
<path d="M1210 3746 c0 -3 9 -10 20 -16 11 -6 20 -8 20 -6 0 3 -9 10 -20 16
-11 6 -20 8 -20 6z"/>
<path d="M1260 3716 c0 -2 8 -10 18 -17 15 -13 16 -12 3 4 -13 16 -21 21 -21
13z"/>
<path d="M1300 4453 c-20 -6 -61 -23 -82 -34 -10 -5 -28 -9 -40 -9 -34 0 -56
-16 -41 -31 8 -8 16 -8 31 0 11 6 50 18 87 26 76 18 132 8 176 -32 30 -28 82
-32 77 -6 -2 11 -25 25 -63 38 -33 11 -71 28 -85 38 -25 17 -34 19 -60 10z"/>
<path d="M1075 4827 c-16 -5 -44 -16 -62 -23 -17 -8 -34 -14 -38 -14 -4 0 -18
-9 -32 -20 -15 -12 -41 -20 -63 -20 -34 0 -40 -4 -55 -37 -10 -21 -20 -42 -22
-46 -9 -15 71 6 137 35 36 16 74 34 85 38 11 5 36 11 55 12 34 3 35 5 38 46 3
45 3 45 -43 29z"/>
<path d="M1608 4772 c-6 -21 8 -62 20 -62 5 0 19 -9 32 -20 13 -11 35 -23 49
-27 14 -3 39 -17 54 -30 16 -12 37 -23 48 -23 10 0 19 -4 19 -10 0 -5 9 -10
20 -10 25 0 25 4 0 54 -15 32 -33 48 -82 74 -35 18 -73 32 -85 32 -12 0 -25 4
-28 10 -3 5 -14 14 -24 20 -15 7 -20 6 -23 -8z"/>
<path d="M765 4580 c-7 -12 12 -12 40 0 18 8 17 9 -7 9 -15 1 -30 -3 -33 -9z"/>
<path d="M865 4535 c-33 -13 -77 -29 -99 -36 -24 -8 -46 -25 -57 -43 -26 -42
-24 -46 16 -46 19 0 35 4 35 9 0 5 12 11 28 14 54 11 98 24 135 42 33 16 38
22 35 49 -4 39 -16 40 -93 11z"/>
<path d="M1687 4483 c-4 -3 -7 -16 -7 -27 0 -23 29 -39 98 -55 25 -5 50 -18
59 -30 10 -15 25 -21 54 -21 38 0 40 2 37 27 -2 21 -10 29 -33 34 -35 7 -131
55 -140 69 -7 11 -58 14 -68 3z"/>
<path d="M810 4316 c-14 -8 -58 -24 -97 -37 -72 -23 -73 -24 -73 -57 0 -33 1
-33 33 -27 17 4 55 17 82 30 28 13 67 29 88 35 41 13 46 28 19 53 -22 20 -20
20 -52 3z"/>
<path d="M1737 4262 c-13 -3 -17 -11 -15 -30 2 -19 15 -31 48 -49 25 -12 50
-26 55 -31 6 -4 32 -15 58 -24 l48 -16 -3 37 c-3 31 -8 38 -46 56 -24 11 -46
25 -50 31 -9 13 -73 31 -95 26z"/>
<path d="M755 4050 c-3 -5 -23 -15 -44 -21 -57 -17 -91 -50 -91 -88 0 -17 5
-31 10 -31 6 0 10 6 10 13 0 7 34 24 78 38 63 21 78 29 80 48 5 34 -28 66 -43
41z"/>
<path d="M1689 3994 c-11 -14 -10 -19 10 -35 13 -11 29 -19 36 -19 7 0 18 -7
25 -15 7 -8 24 -15 37 -15 14 0 36 -9 50 -20 33 -26 37 -25 51 5 16 36 15 45
-7 45 -10 0 -30 9 -44 20 -14 11 -34 20 -44 20 -11 0 -28 7 -39 15 -25 19 -58
19 -75 -1z"/>
<path d="M690 3818 c-25 -12 -51 -28 -57 -34 -15 -15 -17 -74 -3 -74 6 0 10 3
10 8 0 10 67 38 113 46 34 6 37 9 37 41 0 31 -3 35 -27 35 -16 0 -48 -10 -73
-22z"/>
<path d="M1625 3824 c-9 -9 -15 -23 -13 -32 3 -16 92 -70 117 -71 8 -1 19 -8
25 -16 6 -9 25 -17 41 -18 28 -2 30 1 33 36 3 35 2 37 -26 37 -16 0 -35 7 -42
15 -7 8 -18 15 -24 15 -7 0 -27 11 -46 25 -40 29 -44 30 -65 9z"/>
<path d="M1821 3821 c25 -20 39 -19 39 5 0 9 -11 14 -31 14 l-31 0 23 -19z"/>
<path d="M1566 3602 c-14 -16 -13 -19 14 -37 16 -11 31 -26 33 -35 2 -8 21
-21 41 -28 33 -12 40 -12 57 4 10 9 19 20 19 25 0 13 -70 49 -96 49 -14 0 -24
6 -24 14 0 22 -27 26 -44 8z"/>
<path d="M720 3583 c-75 -7 -80 -11 -80 -49 0 -35 1 -35 33 -29 86 16 115 28
125 50 9 18 8 25 -4 29 -9 3 -21 5 -27 4 -7 0 -28 -3 -47 -5z"/>
<path d="M1478 3419 c-25 -14 -22 -38 5 -48 13 -5 29 -16 36 -25 8 -10 29 -16
52 -16 30 0 39 -4 39 -17 1 -17 2 -17 15 1 12 16 12 21 -3 42 -16 22 -100 74
-118 74 -5 0 -17 -5 -26 -11z"/>
<path d="M713 3352 c-52 -19 -73 -32 -73 -44 0 -27 11 -27 90 -2 41 13 85 24
98 24 17 0 22 6 22 25 0 22 -4 25 -32 24 -18 0 -66 -12 -105 -27z"/>
<path d="M1340 2685 c-102 -7 -261 -22 -355 -34 -93 -11 -176 -21 -182 -21 -7
0 -13 -10 -13 -22 0 -21 1 -21 133 -14 72 3 150 11 172 17 22 5 146 14 275 19
129 4 236 8 238 9 1 1 2 15 2 31 0 35 22 34 -270 15z"/>
<path d="M1545 2539 c-33 -5 -128 -13 -211 -18 -83 -6 -170 -14 -195 -20 -24
-5 -113 -12 -197 -16 -174 -8 -159 2 -164 -113 -2 -34 -3 -62 -3 -62 0 -1 36
-3 80 -6 44 -3 83 -11 87 -18 13 -19 9 -91 -6 -111 -11 -15 -30 -20 -86 -23
l-72 -4 7 -72 c4 -39 9 -73 11 -75 2 -2 21 1 41 8 88 29 146 -1 159 -81 6 -33
3 -41 -31 -73 -24 -22 -48 -35 -64 -35 -15 0 -35 -6 -45 -13 -16 -12 -15 -16
13 -57 17 -25 31 -51 31 -57 0 -17 35 -16 52 0 38 39 107 49 143 21 30 -23 29
-123 -3 -157 l-22 -24 25 -11 c14 -6 25 -16 25 -21 0 -9 76 -31 109 -31 18 0
20 8 23 67 l3 67 47 20 c38 15 53 17 70 9 13 -6 30 -14 40 -16 9 -3 19 -21 23
-39 14 -70 10 -67 70 -53 52 12 104 47 105 71 0 6 -15 17 -32 25 -46 20 -71
73 -57 122 l10 37 61 0 c43 0 67 -5 80 -17 17 -15 19 -15 33 3 23 29 45 83 45
111 0 26 1 25 -83 44 l-58 12 3 81 3 81 68 0 67 0 0 60 c0 33 -4 65 -8 70 -4
6 -34 10 -67 10 l-60 0 -5 35 c-3 19 -3 55 0 79 5 41 8 46 38 53 34 9 37 18
23 64 -5 16 -12 41 -15 57 -7 30 -9 30 -111 16z m-27 -231 c18 -24 52 -208 52
-286 -1 -124 -34 -225 -85 -261 -19 -13 -46 -34 -60 -46 -30 -29 -90 -39 -195
-33 -89 5 -105 14 -114 63 -4 19 -11 35 -16 35 -24 0 -65 88 -77 165 -28 182
-34 243 -31 295 l3 55 223 6 c122 3 225 9 229 12 11 12 60 8 71 -5z"/>
<path d="M1270 2269 c-41 -5 -105 -14 -142 -20 l-68 -12 0 -51 c0 -50 10 -124
29 -216 5 -25 15 -78 22 -117 7 -40 16 -73 20 -73 4 0 15 -7 24 -16 10 -11 41
-18 94 -21 67 -5 86 -3 123 16 24 11 49 21 56 21 6 0 17 11 24 24 7 13 22 39
32 57 15 26 21 60 24 141 4 101 1 125 -29 241 l-10 37 -62 -1 c-34 -1 -96 -5
-137 -10z m93 -89 c28 -20 48 -43 52 -59 7 -33 -20 -101 -40 -101 -8 0 -15 -4
-15 -8 0 -5 -23 -15 -50 -24 -54 -17 -72 -15 -147 18 l-43 19 0 65 c0 51 4 68
18 78 86 61 152 65 225 12z m-6 -270 c15 -30 17 -84 3 -111 -9 -16 -22 -19
-77 -19 -55 0 -69 4 -84 22 -24 27 -24 65 1 103 33 50 133 53 157 5z"/>
<path d="M1194 2138 c-35 -39 -35 -46 -3 -82 35 -40 62 -45 110 -21 39 21 53
58 37 93 -12 24 -20 27 -68 30 -48 2 -59 -1 -76 -20z"/>
<path d="M1251 1866 c-16 -20 -3 -46 24 -46 30 0 42 30 19 47 -22 16 -29 16
-43 -1z"/>
<path d="M1643 2328 c-37 -18 -27 -28 26 -28 44 0 49 2 44 20 -6 22 -34 25
-70 8z"/>
<path d="M774 2266 c-3 -8 -4 -27 -2 -43 3 -25 7 -28 45 -31 23 -2 51 2 63 8
22 12 27 49 8 68 -17 17 -107 16 -114 -2z"/>
<path d="M1640 2025 c-16 -20 -6 -29 50 -45 56 -16 70 -13 70 14 0 30 -3 32
-61 41 -36 5 -48 3 -59 -10z"/>
<path d="M890 1950 c-8 -5 -26 -10 -40 -10 -39 0 -48 -11 -38 -47 10 -38 33
-42 92 -18 33 14 37 19 34 48 -3 34 -22 44 -48 27z"/>
<path d="M1591 1737 c-16 -16 -14 -47 4 -53 8 -4 15 -12 15 -20 0 -17 22 -18
38 -2 15 15 16 48 2 48 -5 0 -19 9 -29 19 -14 14 -22 16 -30 8z"/>
<path d="M987 1649 c-31 -25 -35 -34 -27 -50 13 -23 58 -26 66 -4 4 8 14 15
24 15 28 0 34 18 16 45 -21 32 -34 31 -79 -6z"/>
<path d="M1315 1569 c-4 -6 -4 -30 0 -55 7 -47 25 -57 57 -31 12 9 13 21 6 55
-8 35 -13 42 -33 42 -13 0 -27 -5 -30 -11z"/>
<path d="M1245 1293 c-38 -8 -72 -17 -75 -19 -3 -3 5 -23 17 -45 27 -49 20
-76 -28 -110 l-32 -23 -36 20 c-20 10 -43 34 -51 51 -8 18 -22 33 -31 33 -18
0 -49 -30 -49 -47 0 -6 -3 -13 -8 -15 -4 -1 -15 -22 -24 -45 l-16 -41 27 -10
c14 -6 37 -13 51 -16 37 -8 54 -60 39 -120 -13 -52 -32 -60 -122 -54 -51 3
-52 3 -55 -27 -6 -51 36 -154 63 -155 6 0 19 10 29 21 15 18 26 21 77 17 69
-5 88 -23 89 -81 0 -30 -7 -44 -40 -77 -43 -43 -47 -50 -27 -50 7 0 32 -16 54
-35 23 -19 44 -35 47 -35 3 0 14 19 25 43 36 77 75 102 134 86 57 -15 71 -39
63 -106 -4 -32 -11 -62 -16 -67 -18 -18 -10 -26 28 -26 20 -1 56 -5 79 -9 47
-9 53 -3 53 55 0 90 68 129 121 70 25 -27 28 -39 29 -92 0 -73 2 -74 100 -74
l68 0 7 72 c4 40 24 141 45 223 22 83 44 193 50 245 6 52 23 146 37 208 30
127 29 131 -39 142 -24 4 -55 11 -70 15 -25 6 -28 5 -28 -18 0 -39 -43 -67
-101 -67 -71 0 -105 43 -89 114 8 35 7 36 -20 36 -15 0 -42 3 -60 7 -31 6 -33
5 -27 -19 18 -72 -47 -130 -122 -107 -46 14 -60 35 -68 100 -3 27 -11 49 -17
48 -6 0 -42 -7 -81 -16z m312 -184 c28 -6 54 -16 56 -24 3 -7 21 -16 39 -20
18 -4 45 -14 60 -21 24 -12 25 -16 17 -51 -40 -163 -61 -272 -69 -352 -5 -48
-15 -90 -23 -98 -12 -12 -30 -12 -126 1 -61 9 -128 23 -148 31 -19 8 -44 15
-53 15 -10 0 -31 6 -47 14 -15 8 -45 22 -65 32 -21 10 -38 22 -38 26 0 3 -8 9
-17 12 -10 4 -29 31 -42 61 -28 65 -26 136 5 244 16 54 25 67 59 90 22 14 43
30 46 35 18 24 230 27 346 5z"/>
<path d="M1250 1039 c-47 -13 -74 -28 -97 -54 -33 -34 -33 -36 -33 -132 1 -65
5 -104 14 -115 15 -20 79 -49 151 -68 28 -7 62 -19 77 -27 15 -7 57 -17 95
-23 37 -6 87 -13 111 -16 l42 -7 0 74 c0 44 11 115 25 174 31 125 32 165 6
165 -11 0 -22 4 -25 9 -3 4 -25 11 -48 14 -24 4 -63 11 -88 16 -69 15 -158 12
-230 -10z m297 -91 c52 -23 63 -45 63 -120 0 -63 -3 -72 -29 -99 -26 -25 -37
-29 -86 -29 -92 0 -135 33 -135 104 0 52 17 87 58 123 40 35 81 42 129 21z
m-248 -23 c33 -16 41 -33 41 -81 0 -54 -36 -84 -100 -84 -42 0 -55 5 -75 26
-14 15 -25 36 -25 47 0 36 23 85 44 96 31 14 83 13 115 -4z"/>
<path d="M1480 893 c-29 -10 -50 -48 -50 -90 0 -37 3 -42 32 -52 26 -9 37 -8
62 7 44 25 48 74 10 113 -29 30 -30 31 -54 22z"/>
<path d="M1222 871 c-8 -4 -12 -19 -10 -32 2 -18 9 -24 28 -24 19 0 26 6 28
24 3 20 -11 41 -28 41 -3 0 -11 -4 -18 -9z"/>
<path d="M1407 1304 c-7 -7 2 -62 15 -86 18 -37 58 -8 58 41 0 35 -51 67 -73
45z"/>
<path d="M1097 1262 c-17 -19 -17 -21 -1 -60 11 -25 23 -38 31 -35 15 6 18 33
4 33 -6 0 -11 19 -13 41 -3 41 -3 41 -21 21z"/>
<path d="M1696 1243 c-4 -29 -2 -41 11 -51 27 -19 46 -10 55 26 11 40 -3 62
-37 62 -18 0 -24 -7 -29 -37z"/>
<path d="M3230 1264 c0 -19 17 -52 41 -78 11 -11 19 -25 19 -32 0 -6 7 -17 15
-24 9 -7 15 -29 15 -52 0 -30 -6 -44 -27 -63 -54 -46 -132 -40 -156 12 -6 16
-17 34 -24 41 -7 7 -13 21 -13 30 -1 9 -7 28 -15 42 -14 24 -14 23 -15 -26 0
-29 6 -58 15 -70 19 -25 19 -65 0 -90 -8 -10 -15 -27 -15 -36 0 -23 -36 -24
-79 -2 -37 18 -71 67 -71 102 0 12 -4 30 -10 40 -5 9 -14 29 -20 45 -10 27
-40 38 -40 14 0 -7 16 -46 36 -85 28 -58 34 -82 32 -119 -3 -47 -4 -48 -51
-65 -41 -15 -55 -16 -87 -7 -32 10 -40 18 -46 43 -8 38 -53 136 -71 154 -7 7
-13 20 -13 28 0 16 -32 18 -100 4 -54 -10 -235 4 -316 25 -32 8 -58 14 -59 12
-8 -11 -25 -105 -25 -140 0 -52 -28 -186 -43 -205 -6 -7 -13 -105 -16 -225 -4
-117 -10 -218 -14 -225 -6 -8 0 -12 20 -13 15 0 66 -9 113 -20 47 -11 116 -24
153 -29 38 -5 74 -13 80 -18 7 -5 40 -20 75 -35 l62 -26 0 39 c0 22 4 40 8 40
5 0 17 17 28 38 33 64 43 72 95 72 42 0 51 -4 72 -33 36 -47 42 -74 19 -81
-20 -7 -62 -97 -62 -133 0 -29 18 -39 27 -16 4 10 19 40 35 66 15 26 28 53 29
60 0 7 23 27 50 45 56 37 92 37 125 1 9 -10 23 -19 31 -19 18 0 16 -23 -6 -62
-10 -18 -22 -47 -26 -65 -3 -17 -13 -37 -21 -44 -19 -15 -18 -29 2 -29 33 0
84 96 84 157 0 35 3 39 38 50 30 10 46 9 78 -2 34 -11 39 -18 42 -47 5 -42
-12 -98 -38 -128 -23 -26 -27 -60 -6 -60 20 0 35 22 42 61 4 19 15 45 26 58
10 13 18 28 18 34 0 6 11 25 26 44 24 32 27 33 99 33 75 0 105 -13 105 -45 0
-18 -39 -118 -49 -125 -11 -8 -41 -53 -41 -62 0 -5 9 -8 20 -8 24 0 70 48 70
73 0 11 8 30 19 43 10 13 22 45 26 70 10 66 12 69 56 89 37 17 41 17 79 0 25
-11 43 -27 46 -41 8 -30 -20 -124 -47 -158 -12 -15 -18 -30 -15 -34 15 -14 41
18 59 74 11 32 36 82 56 109 20 28 45 66 55 86 14 29 25 38 53 42 108 18 156
-53 98 -142 -31 -47 -49 -102 -31 -95 7 3 23 30 36 60 12 31 29 58 36 61 9 3
14 21 14 47 0 67 47 179 89 214 8 6 34 12 57 12 34 0 47 -5 63 -27 34 -43 34
-64 2 -133 -17 -36 -31 -75 -31 -87 0 -13 -5 -23 -12 -23 -6 0 -9 -3 -5 -6 11
-12 102 38 140 76 21 22 43 40 48 40 5 0 9 6 9 13 0 7 18 32 40 55 22 22 40
47 40 54 0 7 9 27 20 43 17 26 20 47 20 146 0 109 -2 119 -31 179 -17 36 -41
73 -53 85 -12 11 -33 37 -47 57 -13 21 -28 38 -34 38 -5 0 -24 15 -42 33 -18
18 -46 41 -64 51 l-32 19 7 -38 c4 -21 21 -67 37 -101 30 -63 30 -64 13 -100
-20 -42 -51 -56 -105 -48 -33 6 -44 13 -60 43 -10 20 -23 43 -28 51 -26 48
-32 66 -37 123 -3 34 -14 82 -24 107 -10 25 -21 53 -24 63 -6 18 -33 34 -42
25 -6 -7 17 -58 27 -58 10 0 39 -87 39 -117 0 -31 -25 -79 -45 -87 -42 -16
-83 -6 -119 29 -20 19 -36 43 -36 53 0 9 -6 26 -14 37 -7 11 -17 35 -21 53 -3
17 -11 32 -16 32 -5 0 -16 18 -25 40 -9 22 -20 40 -24 40 -12 0 5 -65 24 -91
9 -13 16 -38 16 -56 0 -41 -51 -103 -86 -103 -35 0 -104 46 -104 70 0 10 -4
22 -10 25 -5 3 -10 26 -10 49 0 72 -10 106 -31 106 -27 0 -26 -60 1 -83 30
-26 28 -106 -5 -141 -32 -34 -93 -36 -128 -3 -29 27 -67 98 -67 127 0 11 -4
20 -8 20 -5 0 -15 18 -22 40 -10 32 -18 40 -37 40 -14 0 -23 -6 -23 -16z m460
-274 c115 -14 163 -24 240 -52 84 -31 110 -45 110 -63 0 -8 15 -21 33 -29 17
-7 48 -30 66 -50 19 -20 41 -36 48 -36 7 0 13 -7 13 -15 0 -8 5 -23 11 -33 18
-29 -13 -104 -63 -151 -24 -22 -50 -41 -59 -41 -18 0 -43 -25 -52 -52 -4 -10
-16 -18 -27 -18 -11 0 -44 -13 -73 -29 -57 -31 -149 -57 -239 -66 -32 -4 -60
-11 -63 -16 -4 -5 -16 -9 -28 -9 -12 0 -34 -6 -48 -14 -70 -36 -411 -26 -564
17 -49 14 -119 28 -155 32 -47 4 -88 17 -145 46 -43 21 -87 39 -97 39 -12 0
-18 7 -18 23 0 20 -9 27 -51 40 -28 10 -58 17 -65 17 -8 0 -22 4 -32 9 -24 13
-148 48 -206 58 -27 4 -53 15 -59 24 -11 18 21 139 38 139 490 4 537 6 650 38
61 17 123 35 138 41 16 6 39 11 53 11 13 0 24 3 24 8 0 17 113 73 196 97 143
41 278 52 424 35z m751 -212 c48 -31 49 -32 49 -82 0 -75 -7 -91 -56 -126 -39
-28 -50 -31 -85 -25 -52 9 -105 59 -114 108 -9 48 2 107 20 107 8 0 27 11 42
25 39 34 84 32 144 -7z"/>
<path d="M3401 926 c-42 -6 -76 -17 -79 -24 -2 -6 -16 -12 -31 -12 -14 0 -36
-6 -47 -14 -11 -8 -38 -18 -60 -22 -42 -8 -102 -38 -119 -60 -14 -18 -86 -33
-160 -34 -33 0 -96 -10 -140 -22 -70 -18 -108 -21 -302 -21 l-223 -1 0 -26 c0
-24 6 -27 88 -49 48 -13 101 -29 119 -37 17 -8 35 -14 40 -14 23 0 93 -42 93
-55 0 -8 9 -15 19 -15 11 0 50 -16 88 -35 37 -19 75 -35 83 -35 15 0 114 -32
155 -49 44 -19 258 -41 400 -41 155 0 309 24 429 66 l49 17 -36 14 c-67 27
-69 97 -8 188 l31 46 -23 32 c-12 17 -27 36 -34 42 -11 9 -17 40 -14 77 2 26
41 58 73 58 37 0 91 -50 108 -99 7 -23 19 -41 25 -41 13 0 29 -52 26 -85 -4
-34 -64 -148 -98 -185 -29 -31 -31 -35 -14 -38 11 -2 46 10 78 27 32 16 70 33
86 37 15 3 33 16 39 28 6 11 28 36 49 54 20 18 43 46 50 63 11 27 10 36 -6 65
-12 22 -26 34 -43 36 -17 2 -32 13 -42 33 -19 38 -39 54 -68 55 -13 0 -54 13
-91 30 -123 54 -317 72 -490 46z m186 -68 c26 -10 36 -21 45 -52 7 -22 27 -56
45 -75 40 -44 42 -74 6 -126 -16 -22 -39 -62 -53 -90 -28 -56 -59 -76 -98 -66
-39 11 -42 72 -8 138 15 26 26 63 26 81 0 36 -25 92 -40 92 -6 0 -10 20 -10
43 0 36 4 46 23 55 29 14 25 14 64 0z m-199 -20 c7 -7 12 -20 12 -30 0 -10 8
-26 18 -36 33 -34 72 -98 72 -119 0 -32 -30 -95 -56 -120 -14 -12 -27 -35 -30
-51 -6 -30 -58 -72 -89 -72 -10 0 -34 10 -52 23 -27 18 -33 28 -33 58 0 20 7
42 14 49 18 14 76 103 76 116 0 5 -20 31 -45 57 -49 53 -57 87 -28 119 19 21
121 26 141 6z m-250 -88 c2 -5 16 -27 33 -49 36 -50 37 -84 4 -142 -14 -24
-31 -57 -38 -72 -11 -25 -50 -47 -63 -34 -4 4 -8 258 -5 306 1 10 10 12 34 7
17 -4 33 -11 35 -16z"/>
<path d="M3551 782 c-1 -34 12 -66 36 -90 8 -9 10 -19 4 -30 -31 -61 -42 -94
-39 -118 3 -26 5 -25 41 30 50 75 55 103 25 149 -12 20 -28 36 -34 37 -5 0
-15 12 -21 28 l-11 27 -1 -33z"/>
<path d="M3324 766 c4 -26 16 -50 38 -73 l32 -33 -18 -35 c-11 -19 -23 -35
-27 -35 -11 0 -42 -100 -34 -108 4 -4 10 -1 13 6 2 8 17 25 33 39 17 15 35 47
43 77 15 50 15 52 -11 104 -14 28 -32 52 -40 52 -7 0 -18 10 -24 23 -8 18 -9
15 -5 -17z"/>
<path d="M3100 696 c0 -2 8 -10 18 -17 15 -13 16 -12 3 4 -13 16 -21 21 -21
13z"/>
<path d="M3132 630 c0 -14 2 -19 5 -12 2 6 2 18 0 25 -3 6 -5 1 -5 -13z"/>
<path d="M3110 570 c-6 -11 -8 -20 -6 -20 3 0 10 9 16 20 6 11 8 20 6 20 -3 0
-10 -9 -16 -20z"/>
<path d="M3786 842 c-9 -16 6 -73 20 -79 8 -3 14 -10 14 -16 0 -6 10 -21 22
-34 19 -20 20 -25 6 -40 -26 -31 -54 -87 -61 -121 -12 -60 20 -35 68 53 l46
85 -18 31 c-10 18 -28 42 -40 55 -13 13 -23 29 -23 37 0 19 -26 41 -34 29z"/>
<path d="M4322 747 c-18 -22 -23 -62 -12 -92 13 -35 26 -45 60 -45 21 0 29 8
41 43 15 38 15 45 1 75 -13 26 -21 32 -48 32 -17 0 -36 -6 -42 -13z"/>
<path d="M3340 1275 c0 -11 33 -69 46 -83 8 -7 14 -22 14 -33 0 -51 51 -79 79
-45 12 14 9 25 -21 76 -5 8 -16 32 -26 52 -15 34 -21 38 -54 38 -21 0 -38 -2
-38 -5z"/>
<path d="M3570 1244 c5 -19 15 -41 24 -47 8 -7 22 -29 31 -49 19 -47 30 -53
61 -34 24 16 24 17 8 48 -9 18 -23 38 -31 46 -8 8 -17 27 -20 43 -5 26 -10 29
-43 29 l-38 0 8 -36z"/>
<path d="M3810 1261 c5 -11 10 -29 10 -40 0 -12 4 -21 10 -21 12 0 60 -97 60
-122 0 -23 48 -37 61 -17 12 18 4 51 -32 125 -16 34 -29 69 -29 78 0 12 -10
16 -45 16 -42 0 -45 -2 -35 -19z"/>
<path d="M3130 1235 c-9 -11 -8 -24 6 -60 9 -25 21 -48 25 -51 5 -3 9 -18 9
-33 0 -47 52 -73 65 -31 7 23 -23 140 -37 140 -4 0 -14 11 -20 25 -13 28 -30
32 -48 10z"/>
<path d="M4048 1185 c5 -24 25 -71 63 -149 16 -33 29 -63 29 -69 0 -20 42 -67
61 -67 16 0 19 7 19 39 0 22 -4 43 -10 46 -5 3 -10 14 -10 23 1 9 -18 56 -42
104 -41 83 -44 86 -79 90 -32 3 -35 1 -31 -17z"/>
<path d="M2951 1156 c-29 -10 -31 -13 -17 -25 9 -7 16 -19 16 -25 0 -6 11 -27
23 -46 13 -19 27 -47 31 -62 5 -23 12 -28 36 -28 26 0 30 4 30 28 0 15 -14 54
-30 87 -16 33 -30 66 -30 73 0 15 -14 14 -59 -2z"/>
<path d="M2090 1102 c0 -15 -7 -54 -15 -86 -9 -32 -20 -86 -25 -120 -5 -34
-19 -115 -30 -181 -12 -66 -26 -156 -30 -200 -5 -44 -16 -102 -24 -130 -22
-70 -21 -75 18 -75 l33 0 11 98 c16 137 30 219 46 277 14 46 31 445 20 445 -2
0 -4 -13 -4 -28z"/>
<path d="M2745 1108 c-11 -6 -21 -12 -23 -13 -7 -5 28 -114 50 -155 18 -35 29
-45 48 -45 21 0 26 5 28 32 2 18 -6 49 -17 72 -12 23 -30 59 -41 81 -11 22
-21 40 -23 40 -1 0 -11 -6 -22 -12z"/>
<path d="M871 960 c-11 -34 -10 -36 47 -43 37 -4 57 13 47 41 -5 19 -32 32
-67 32 -9 0 -21 -13 -27 -30z"/>
<path d="M972 658 c-7 -7 -12 -18 -12 -25 0 -7 -4 -13 -10 -13 -14 0 -12 -32
4 -52 17 -24 28 -23 53 5 26 28 35 55 28 78 -7 22 -45 25 -63 7z"/>
<path d="M1236 469 c-29 -56 -32 -79 -13 -79 6 0 22 -3 33 -6 18 -5 22 0 28
30 4 20 11 36 15 36 17 0 18 39 2 54 -28 25 -38 19 -65 -35z"/>
<path d="M4168 453 c-9 -2 -20 -14 -23 -26 -9 -31 -78 -169 -92 -185 -7 -7
-13 -27 -13 -43 0 -28 1 -29 16 -15 8 9 21 16 29 16 17 0 103 114 111 149 4
14 11 31 16 38 5 6 8 24 6 40 -3 28 -17 35 -50 26z"/>
<path d="M1575 428 c-3 -13 -6 -39 -8 -58 -2 -30 1 -35 21 -38 21 -3 22 0 22
57 0 47 -3 61 -15 61 -8 0 -17 -10 -20 -22z"/>
<path d="M2679 268 c-31 -28 -85 -125 -76 -134 2 -2 19 -5 38 -6 33 -3 35 -1
67 62 49 98 35 137 -29 78z"/>
<path d="M3890 289 c0 -7 -14 -27 -32 -45 -34 -33 -84 -156 -67 -163 6 -1 26
0 45 3 23 5 34 12 34 24 0 10 4 22 8 28 5 5 15 28 22 52 8 24 22 48 32 53 29
16 19 53 -14 57 -18 2 -28 -1 -28 -9z"/>
<path d="M2907 232 c-10 -10 -17 -25 -17 -33 0 -8 -9 -28 -19 -45 -32 -52 -31
-76 4 -85 32 -9 45 1 45 35 0 11 14 44 30 73 17 30 28 58 25 63 -10 16 -51 11
-68 -8z"/>
<path d="M3607 239 c-26 -15 -49 -73 -56 -145 -6 -53 -5 -61 9 -56 40 13 80
78 80 129 0 15 7 34 16 44 29 32 -7 52 -49 28z"/>
<path d="M3119 224 c-22 -27 -41 -86 -46 -142 -4 -48 -3 -53 14 -50 24 4 82
122 82 171 1 30 -3 37 -18 37 -10 0 -25 -7 -32 -16z"/>
<path d="M3356 207 c-13 -13 -26 -42 -30 -67 -4 -24 -18 -59 -31 -76 -33 -43
-31 -54 8 -54 28 0 38 7 63 42 30 43 61 149 49 168 -10 17 -35 11 -59 -13z"/>
</g>
</svg>
